HIERARCHY
ROOT joint_Root
{
	OFFSET 0.0 0.0 0.0
	CHANNELS 6 Xposition Yposition Zposition Zrotation Xrotation Yrotation 
	JOINT Hips
	{
		OFFSET -17.1583 93.1646 452.98
		CHANNELS 6 Xposition Yposition Zposition Zrotation Xrotation Yrotation 
		JOINT Spine
		{
			OFFSET 15.7357 0.0 0.0
			CHANNELS 6 Xposition Yposition Zposition Zrotation Xrotation Yrotation 
			JOINT Chest
			{
				OFFSET 8.98455 -0.406207 0.0
				CHANNELS 6 Xposition Yposition Zposition Zrotation Xrotation Yrotation 
				JOINT Neck
				{
					OFFSET 16.3773 0.0 0.0
					CHANNELS 6 Xposition Yposition Zposition Zrotation Xrotation Yrotation 
					JOINT Head
					{
						OFFSET 6.45672 0.0 0.0
						CHANNELS 6 Xposition Yposition Zposition Zrotation Xrotation Yrotation 
						End Site
						{
							OFFSET 0.0 0.0 0.0
						}
					}
				}
				JOINT Shoulder_L
				{
					OFFSET 12.9942 -0.242716 4.98039
					CHANNELS 6 Xposition Yposition Zposition Zrotation Xrotation Yrotation 
					JOINT UpperArm_L
					{
						OFFSET 5.34809 0.0 0.0
						CHANNELS 6 Xposition Yposition Zposition Zrotation Xrotation Yrotation 
						JOINT LowerArm_L
						{
							OFFSET 24.3286 1.87007e-05 0.0
							CHANNELS 6 Xposition Yposition Zposition Zrotation Xrotation Yrotation 
							JOINT Hand_L
							{
								OFFSET 22.2916 0.0 0.0
								CHANNELS 6 Xposition Yposition Zposition Zrotation Xrotation Yrotation 
								End Site
								{
									OFFSET 0.0 0.0 0.0
								}
							}
						}
					}
				}
				JOINT Shoulder_R
				{
					OFFSET 12.9945 -0.242716 -4.98039
					CHANNELS 6 Xposition Yposition Zposition Zrotation Xrotation Yrotation 
					JOINT UpperArm_R
					{
						OFFSET -5.34813 0.0 0.0
						CHANNELS 6 Xposition Yposition Zposition Zrotation Xrotation Yrotation 
						JOINT LowerArm_R
						{
							OFFSET -24.3289 0.000322201 0.0
							CHANNELS 6 Xposition Yposition Zposition Zrotation Xrotation Yrotation 
							JOINT Hand_R
							{
								OFFSET -22.2915 -0.000108084 0.0
								CHANNELS 6 Xposition Yposition Zposition Zrotation Xrotation Yrotation 
								End Site
								{
									OFFSET 0.0 0.0 0.0
								}
							}
						}
					}
				}
			}
		}
		JOINT UpperLeg_L
		{
			OFFSET -2.19248 -6.46944 0.0
			CHANNELS 6 Xposition Yposition Zposition Zrotation Xrotation Yrotation 
			JOINT LowerLeg_L
			{
				OFFSET 39.0811 0.0 -1.23785e-05
				CHANNELS 6 Xposition Yposition Zposition Zrotation Xrotation Yrotation 
				JOINT Foot_L
				{
					OFFSET 40.9854 0.0 -1.26872e-05
					CHANNELS 6 Xposition Yposition Zposition Zrotation Xrotation Yrotation 
					JOINT Toes_L
					{
						OFFSET 11.7543 0.0 0.0
						CHANNELS 6 Xposition Yposition Zposition Zrotation Xrotation Yrotation 
						End Site
						{
							OFFSET 0.0 0.0 0.0
						}
					}
				}
			}
		}
		JOINT UpperLeg_R
		{
			OFFSET -2.19251 6.46944 0.0
			CHANNELS 6 Xposition Yposition Zposition Zrotation Xrotation Yrotation 
			JOINT LowerLeg_R
			{
				OFFSET -39.0811 -0.00228153 -0.0401928
				CHANNELS 6 Xposition Yposition Zposition Zrotation Xrotation Yrotation 
				JOINT Foot_R
				{
					OFFSET -40.9854 0.0 0.0
					CHANNELS 6 Xposition Yposition Zposition Zrotation Xrotation Yrotation 
					JOINT Toes_R
					{
						OFFSET -11.7543 0.0 0.0
						CHANNELS 6 Xposition Yposition Zposition Zrotation Xrotation Yrotation 
						End Site
						{
							OFFSET 0.0 0.0 0.0
						}
					}
				}
			}
		}
	}
}
MOTION
Frames:	4
Frame Time:	0.0333333
0.000000 0.000000 0.000000 0.000000 0.000000 -0.000000 3.154200 92.847300 1.007950 89.009200 3.186520 2.892000 15.735700 0.000005 -0.000001 103.108000 85.945400 -103.396000 8.984550 -0.406207 -0.000000 0.137001 1.857700 -0.578643 16.377300 -0.000001 -0.000001 4.206150 0.167497 -1.316180 6.456720 -0.000001 -0.000000 -11.396800 -3.106330 1.112710 12.994200 -0.242716 4.980390 -93.680900 10.445500 -70.463500 5.348090 -0.000007 -0.000001 -67.248400 20.131900 -7.518820 24.328600 0.000019 0.000005 7.286050 24.990700 -16.838100 22.291600 -0.000001 0.000005 -4.933140 5.098190 5.154660 12.994500 -0.242716 -4.980390 87.488500 7.434260 -71.273500 -5.348130 -0.000001 -0.000004 -68.591200 34.188500 -6.860030 -24.328900 0.000322 -0.000009 0.764568 2.768130 -15.467100 -22.291500 -0.000108 -0.000004 0.501771 5.290050 0.349569 -2.192480 -6.469440 -0.000000 -176.461000 -7.348790 0.319788 39.081100 -0.000007 -0.000012 0.049396 -0.155013 17.675200 40.985400 -0.000006 -0.000013 2.792140 15.817300 -69.904400 11.754300 -0.000000 0.000003 -0.002270 0.199682 -8.475180 -2.192510 6.469440 -0.000001 172.514000 11.532400 -174.947000 -39.081100 -0.002282 -0.040193 -0.007872 0.060505 10.496100 -40.985400 0.000008 0.000006 -11.381200 7.396490 -65.552900 -11.754300 -0.000006 -0.000006 -0.011756 0.283990 -5.031820
0.000000 0.000000 0.000000 0.000000 0.000000 -0.000000 3.098590 92.854600 1.072400 89.016300 3.219650 2.682200 15.735700 0.000005 -0.000001 103.602000 86.035200 -103.663000 8.984550 -0.406207 -0.000000 -0.057542 1.868520 -0.120080 16.377300 -0.000001 -0.000001 3.945640 0.166910 -0.963955 6.456720 -0.000001 -0.000000 -11.640500 -2.994200 1.213840 12.994200 -0.242716 4.980390 -93.771900 10.718700 -70.482200 5.348090 -0.000007 -0.000001 -66.329200 19.980300 -8.739870 24.328600 0.000019 0.000005 7.266030 27.119900 -15.626500 22.291600 -0.000001 0.000005 -7.344090 5.124760 4.532590 12.994500 -0.242716 -4.980390 87.535600 7.305520 -71.301300 -5.348130 -0.000001 -0.000004 -68.563800 33.525700 -6.390110 -24.328900 0.000322 -0.000009 0.779687 2.751880 -15.845800 -22.291500 -0.000108 -0.000004 0.528671 5.299240 0.093824 -2.192480 -6.469440 -0.000000 -176.413000 -7.492670 0.210701 39.081100 -0.000007 -0.000012 0.046610 -0.147422 17.545300 40.985400 -0.000006 -0.000013 2.761440 16.013800 -69.894600 11.754300 -0.000000 0.000003 -0.002289 0.199913 -8.465760 -2.192510 6.469440 -0.000001 172.576000 11.549500 -175.077000 -39.081100 -0.002282 -0.040193 -0.007155 0.057204 10.393900 -40.985400 0.000008 0.000006 -11.493500 7.378310 -65.463100 -11.754300 -0.000006 -0.000006 -0.011608 0.282953 -5.074310
0.000000 0.000000 0.000000 0.000000 0.000000 -0.000000 3.051210 92.887300 1.106950 89.036200 3.308940 2.372610 15.735700 0.000005 -0.000001 103.590000 86.195000 -103.321000 8.984550 -0.406207 -0.000000 -0.373074 1.768630 0.543741 16.377300 -0.000001 -0.000001 3.537580 0.239144 -0.584489 6.456720 -0.000001 -0.000000 -11.847400 -2.812510 1.482850 12.994200 -0.242716 4.980390 -93.791900 10.846300 -70.596900 5.348090 -0.000007 -0.000001 -64.881200 19.821800 -10.352700 24.328600 0.000019 0.000005 7.402930 30.087500 -14.530300 22.291600 -0.000001 0.000005 -12.287600 5.187140 3.016080 12.994500 -0.242716 -4.980390 87.571100 7.201730 -71.306000 -5.348130 -0.000001 -0.000004 -68.257000 32.969800 -6.013030 -24.328900 0.000322 -0.000009 0.799203 2.749920 -16.232200 -22.291500 -0.000108 -0.000004 0.466411 5.298550 0.113326 -2.192480 -6.469440 -0.000000 -176.398000 -7.659770 0.090738 39.081100 -0.000007 -0.000012 0.044400 -0.143234 17.222700 40.985400 -0.000006 -0.000013 2.716840 16.263600 -69.887600 11.754300 -0.000000 0.000003 -0.002221 0.199081 -8.499630 -2.192510 6.469440 -0.000001 172.607000 11.594600 -175.103000 -39.081100 -0.002282 -0.040193 -0.005990 0.053498 9.892150 -40.985400 0.000008 0.000006 -11.926700 7.327680 -65.120700 -11.754300 -0.000006 -0.000006 -0.011344 0.281087 -5.150700
0.000000 0.000000 0.000000 0.000000 0.000000 -0.000000 2.987030 92.933200 1.165980 89.013900 3.543180 2.043450 15.735700 0.000005 -0.000001 102.579000 86.399200 -101.879000 8.984550 -0.406207 -0.000000 -0.746058 1.516090 1.410240 16.377300 -0.000001 -0.000001 3.081320 0.347059 -0.121905 6.456720 -0.000001 -0.000000 -12.250700 -2.513240 2.034930 12.994200 -0.242716 4.980390 -93.732400 10.707300 -70.653000 5.348090 -0.000007 -0.000001 -62.684500 18.971700 -12.561000 24.328600 0.000019 0.000005 7.739150 33.676200 -13.771300 22.291600 -0.000001 0.000005 -19.361000 5.289070 0.328747 12.994500 -0.242716 -4.980390 87.583200 7.109530 -71.170100 -5.348130 -0.000001 -0.000004 -67.749800 32.373300 -5.694350 -24.328900 0.000322 -0.000009 0.863858 2.890370 -16.667300 -22.291500 -0.000108 -0.000004 0.542208 5.305150 -0.072672 -2.192480 -6.469440 -0.000000 -176.270000 -8.135370 -0.021107 39.081100 -0.000007 -0.000012 0.039607 -0.131080 16.812900 40.985400 -0.000006 -0.000013 2.711460 16.955500 -69.816100 11.754300 -0.000000 0.000003 -0.002309 0.200147 -8.456260 -2.192510 6.469440 -0.000001 172.698000 11.693200 -175.244000 -39.081100 -0.002282 -0.040193 -0.004657 0.047291 9.597500 -40.985400 0.000008 0.000006 -12.299700 7.223890 -64.759000 -11.754300 -0.000006 -0.000006 -0.010821 0.277339 -5.304140
